<svg xmlns="http://www.w3.org/2000/svg" width="1200" height="430" viewBox="0 0 1200 430" role="img" aria-label="Voice Heist">
<title>Voice Heist</title>
<desc>Voice Heist hero banner: a neon orb above the centered Voice Heist wordmark, the tagline "Talk an AI gatekeeper into bending its one rule", and a "Powered by Deepgram Voice Agent API" footer on a dark background.</desc>
<defs>
<radialGradient id="glowTeal" cx="50%" cy="50%" r="50%">
<stop offset="0%" stop-color="#0bd1c9" stop-opacity="0.32"/>
<stop offset="100%" stop-color="#0bd1c9" stop-opacity="0"/>
</radialGradient>
<radialGradient id="glowBlue" cx="50%" cy="50%" r="50%">
<stop offset="0%" stop-color="#2f6bff" stop-opacity="0.28"/>
<stop offset="100%" stop-color="#2f6bff" stop-opacity="0"/>
</radialGradient>
<linearGradient id="orb" x1="0%" y1="0%" x2="100%" y2="100%">
<stop offset="0%" stop-color="#c026d3"/>
<stop offset="50%" stop-color="#3b82f6"/>
<stop offset="100%" stop-color="#22d3ee"/>
</linearGradient>
</defs>
<rect x="0" y="0" width="1200" height="430" fill="#060a12"/>
<ellipse cx="250" cy="60" rx="540" ry="360" fill="url(#glowTeal)"/>
<ellipse cx="950" cy="60" rx="540" ry="360" fill="url(#glowBlue)"/>
<g fill="none" stroke="url(#orb)" stroke-linecap="round">
<path d="M500 80 C 516 190, 684 190, 700 80" stroke-width="44" opacity="0.12"/>
<path d="M500 80 C 516 190, 684 190, 700 80" stroke-width="24" opacity="0.26"/>
<path d="M500 80 C 516 190, 684 190, 700 80" stroke-width="11"/>
<path d="M532 95 C 545 168, 655 168, 668 95" stroke-width="8" opacity="0.85"/>
</g>
<g font-family="'Trebuchet MS','Segoe UI',Arial,sans-serif" text-anchor="middle">
<text x="600" y="272" font-size="76" font-weight="bold" letter-spacing="10" fill="#eafdff">VOICE HEIST</text>
<text x="600" y="324" font-size="26" font-weight="400" fill="#9fb6c4">Talk an AI gatekeeper into bending its one rule.</text>
<text x="600" y="380" font-size="18" letter-spacing="0.5" fill="#6fe9d2">Powered by Deepgram Voice Agent API</text>
</g>
</svg>
