<svg xmlns="http://www.w3.org/2000/svg" width="1200" height="400" viewBox="0 0 1200 400" role="img" aria-label="Voice Heist">
<title>Voice Heist</title>
<desc>Voice Heist hero banner: a neon orb beside the Voice Heist wordmark and the tagline "Talk an AI gatekeeper into bending its one rule" on a dark background.</desc>
<defs>
<radialGradient id="glowTeal" cx="50%" cy="50%" r="50%">
<stop offset="0%" stop-color="#0bd1c9" stop-opacity="0.33"/>
<stop offset="100%" stop-color="#0bd1c9" stop-opacity="0"/>
</radialGradient>
<radialGradient id="glowBlue" cx="50%" cy="50%" r="50%">
<stop offset="0%" stop-color="#2f6bff" stop-opacity="0.28"/>
<stop offset="100%" stop-color="#2f6bff" stop-opacity="0"/>
</radialGradient>
<linearGradient id="orb" x1="0%" y1="0%" x2="100%" y2="100%">
<stop offset="0%" stop-color="#c026d3"/>
<stop offset="50%" stop-color="#3b82f6"/>
<stop offset="100%" stop-color="#22d3ee"/>
</linearGradient>
</defs>
<rect x="0" y="0" width="1200" height="400" fill="#060a12"/>
<ellipse cx="210" cy="80" rx="540" ry="380" fill="url(#glowTeal)"/>
<ellipse cx="1040" cy="60" rx="520" ry="350" fill="url(#glowBlue)"/>
<g fill="none" stroke="url(#orb)" stroke-linecap="round">
<path d="M150 150 C 175 330, 365 330, 390 150" stroke-width="46" opacity="0.12"/>
<path d="M150 150 C 175 330, 365 330, 390 150" stroke-width="26" opacity="0.26"/>
<path d="M150 150 C 175 330, 365 330, 390 150" stroke-width="12"/>
<path d="M193 170 C 210 300, 330 300, 347 170" stroke-width="9" opacity="0.85"/>
</g>
<g font-family="'Trebuchet MS','Segoe UI',Arial,sans-serif">
<circle cx="470" cy="150" r="9" fill="#22e3b5"/>
<circle cx="470" cy="150" r="15" fill="none" stroke="#22e3b5" stroke-width="2" opacity="0.5"/>
<text x="500" y="176" font-size="76" font-weight="bold" letter-spacing="10" fill="#eafdff">VOICE HEIST</text>
<text x="502" y="232" font-size="26" font-weight="400" fill="#9fb6c4">Talk an AI gatekeeper into bending its one rule.</text>
<text x="503" y="298" font-size="18" letter-spacing="0.5" fill="#6fe9d2">Powered by Deepgram Voice Agent API</text>
</g>
</svg>
